PathFileType	3	(X/Y/Z)	D:\minhoCalibration\240510\subject1_KPNP\preferred\preferred15.trc
DataRate	CameraRate	NumFrames	NumMarkers	Units	OrigDataRate	OrigDataStartFrame	OrigNumFrames
200.0	200.0	24	10	mm	200.0	326	228	
Frame#	Time	Left_Ankle_Outer1			Left_Ankle_Inner1			Left_Knee_Outer1			Left_Knee_Inner1			Left_Wrist1			Right_Wrist1			Right_Knee_Inner1			Right_Knee_Outer1			Right_Ankle_Inner1			Right_Ankle_Outer1			
		X1	Y1	Z1	X2	Y2	Z2	X3	Y3	Z3	X4	Y4	Z4	X5	Y5	Z5	X6	Y6	Z6	X7	Y7	Z7	X8	Y8	Z8	X9	Y9	Z9	X10	Y10	Z10	
326	1.62	-457.10147	118.0634	-602.67633	-514.58398	113.82922	-596.08289	-545.14703	563.64563	-540.73853	-625.72815	504.54861	-595.21655	-535.74072	977.12952	-711.4588	-743.56274	988.60992	-998.51343	-742.88654	510.82272	-935.75122	-779.14325	541.41888	-1034.0924	-619.01996	115.68259	-1107.0671	-705.25153	106.08084	-1183.7988
327	1.625	-458.1752	118.78181	-602.90771	-515.58948	114.29825	-595.23865	-544.42584	564.6026	-540.22101	-625.40625	505.66309	-594.14478	-535.93195	978.27094	-710.91083	-743.65948	988.91461	-997.89764	-741.51471	511.31244	-936.38129	-777.67761	542.12061	-1034.8879	-618.82977	115.70007	-1106.9156	-704.78448	106.26061	-1183.8546
328	1.63	-459.23947	119.46759	-603.07196	-516.59973	115.09303	-594.9635	-543.66132	565.54517	-539.65948	-625.30292	507.05756	-593.25787	-536.10046	979.28949	-710.37463	-743.64062	989.5929	-997.46564	-740.25372	511.79874	-937.09528	-775.85327	542.65924	-1035.6017	-618.72198	115.71075	-1106.705	-704.31567	106.57999	-1183.8679
329	1.635	-460.16647	120.19654	-603.15704	-517.7016	116.26903	-595.23053	-542.8429	566.49988	-538.96716	-624.97949	508.21017	-592.15375	-536.23804	980.29059	-709.79468	-743.52002	990.02997	-997.20697	-739.03101	512.20953	-937.68384	-774.60315	543.35046	-1036.4989	-619.02057	115.85507	-1106.2648	-703.89935	106.66068	-1183.9897
330	1.64	-460.94077	120.9584	-603.15649	-518.59723	117.08458	-594.98553	-542.0152	567.43347	-538.19263	-624.45331	509.09543	-590.87646	-536.36432	981.27942	-709.12323	-743.23151	990.53094	-996.91064	-737.93103	512.59393	-938.33325	-773.00787	543.88098	-1037.0704	-618.96674	115.78034	-1106.017	-703.48492	107.11388	-1183.9574
331	1.645	-461.72397	121.55401	-603.13617	-519.06659	117.74164	-594.12701	-541.11359	568.37195	-537.3158	-624.20026	510.37598	-589.73181	-536.4115	982.19031	-708.43658	-743.11865	990.91956	-996.39001	-737.03271	512.99573	-938.82623	-771.59357	544.38641	-1037.6144	-618.75311	115.79842	-1105.8181	-703.15912	107.43629	-1183.9352
332	1.65	-462.29053	122.34676	-603.07349	-519.61639	118.60732	-593.63489	-540.17194	569.24011	-536.33972	-623.72852	511.29245	-588.45575	-536.487	983.01465	-707.72723	-742.86621	990.9223	-996.37122	-736.04419	513.33582	-939.34003	-770.49304	544.98297	-1038.3973	-618.81073	115.81876	-1105.5668	-702.85809	107.70064	-1183.9365
333	1.655	-462.90756	123.00562	-602.87299	-520.09644	119.41289	-593.22162	-539.09631	570.09424	-535.3252	-623.13464	512.05402	-586.90259	-536.55121	983.65002	-707.09393	-742.56696	991.57568	-995.2915	-735.08636	513.61401	-939.8299	-768.90509	545.39594	-1038.6482	-618.72992	115.75803	-1105.3237	-702.46643	107.77171	-1183.9427
334	1.66	-463.41122	123.61851	-602.70679	-520.59839	120.29846	-592.77045	-537.96289	570.92224	-534.26794	-622.60583	513.2641	-585.47443	-536.58282	984.60809	-706.03308	-742.10107	991.82928	-995.867	-734.2016	513.90253	-940.25897	-767.68762	545.80005	-1039.2961	-618.64142	115.73183	-1105.1195	-702.17084	108.11335	-1183.8955
335	1.665	-463.66287	124.42588	-602.47882	-520.83649	120.71197	-591.99463	-536.78778	571.74677	-533.08038	-621.99097	514.21204	-583.79077	-536.57172	985.29028	-705.07098	-741.6723	992.08472	-994.90625	-733.27991	514.16644	-940.62695	-766.5011	546.20154	-1039.7538	-618.6189	115.66847	-1104.9709	-701.81415	108.17267	-1183.9352
336	1.67	-463.92651	125.05852	-602.18866	-521.14209	121.59161	-591.65381	-535.62646	572.48328	-531.89752	-621.27649	515.0744	-582.03125	-536.51239	985.94733	-704.07001	-741.25409	992.35876	-994.79968	-732.33032	514.38116	-940.9585	-765.55475	546.7356	-1040.4015	-618.46594	115.70326	-1104.8374	-701.53632	108.69076	-1183.8304
337	1.675	-464.12933	125.69707	-601.89264	-521.33319	122.34315	-590.98303	-534.33673	573.19904	-530.63202	-620.49268	516.01733	-580.13721	-536.59058	986.45636	-703.20349	-740.60529	992.3111	-994.01874	-731.42627	514.62817	-941.31543	-764.1568	546.97034	-1040.4908	-618.41949	115.67181	-1104.6859	-701.27722	108.84489	-1183.8003
338	1.68	-464.3017	126.31877	-601.51984	-521.35614	123.0063	-590.41772	-533.03473	573.89825	-529.27386	-619.75732	516.90295	-578.18201	-536.55701	986.9386	-702.15356	-740.19354	992.50195	-993.95056	-730.50269	514.72314	-941.63177	-763.00696	547.21509	-1040.9011	-618.3833	115.59131	-1104.6614	-700.95374	109.0155	-1183.8191
339	1.685	-464.38892	126.90844	-601.13654	-521.32178	123.66501	-589.56775	-531.66089	574.54901	-527.89667	-618.90588	517.71655	-576.06915	-536.50317	987.33875	-701.19501	-739.55469	992.52045	-993.44397	-729.63867	514.8158	-941.91504	-762.15558	547.66455	-1041.4608	-618.27374	115.46341	-1104.683	-700.7431	108.95261	-1183.9441
340	1.69	-464.43396	127.49049	-600.65588	-521.34576	124.44974	-588.89349	-530.30902	575.18127	-526.45129	-618.23553	518.57635	-573.87549	-536.38074	987.66199	-700.13831	-738.69672	992.37518	-992.71521	-728.66589	514.90924	-942.17932	-760.76428	547.76208	-1041.501	-618.24567	115.35913	-1104.6722	-700.53339	108.99368	-1184.0414
341	1.695	-464.35059	128.11934	-600.19922	-521.2915	125.16472	-588.18964	-528.93286	575.78455	-524.93719	-617.07153	519.23792	-571.73962	-536.19196	987.91632	-699.09039	-738.01807	992.36774	-992.35852	-727.69763	514.92407	-942.36462	-759.64557	548.0177	-1041.6384	-618.12958	115.27477	-1104.7567	-700.34491	108.98636	-1184.1407
342	1.7	-464.36069	128.66647	-599.73413	-521.28351	125.98685	-587.69452	-527.55798	576.32764	-523.34143	-616.39545	520.07904	-569.5354	-536.02539	988.10022	-698.05328	-737.18298	992.23315	-991.74103	-726.67657	514.9516	-942.57367	-758.78247	548.30316	-1042.0754	-617.70557	115.23047	-1104.8884	-700.18854	108.88525	-1184.3235
343	1.705	-464.26151	129.17107	-599.21503	-521.09509	126.52524	-587.04242	-526.1333	576.91095	-521.65387	-615.25928	520.65582	-567.20026	-535.74146	988.2196	-696.9588	-736.64886	991.83551	-990.83344	-725.54041	514.71643	-943.56311	-757.37964	548.2934	-1042	-617.85773	115.05991	-1104.8235	-699.97705	108.80423	-1184.4558
344	1.71	-464.14795	129.71646	-598.70361	-520.99768	127.15712	-586.20862	-524.69751	577.41943	-519.88574	-614.34631	521.42065	-564.81445	-535.39069	988.2666	-696.0166	-735.73291	991.85052	-990.12305	-724.4223	514.83844	-942.99243	-756.18585	548.44391	-1042.0354	-617.7392	114.86031	-1104.8264	-699.78192	108.73341	-1184.5398
345	1.715	-464.09616	130.22511	-598.2702	-520.85962	127.8064	-585.48779	-523.20551	577.98053	-518.08398	-613.61365	522.18677	-562.42273	-534.97693	988.24823	-694.86377	-734.77228	991.6322	-989.55896	-723.3446	514.70801	-943.05725	-754.94537	548.52734	-1042.1943	-617.59277	114.66353	-1104.8387	-699.45459	108.37286	-1184.3961
346	1.72	-463.96884	130.73047	-597.8902	-520.85114	128.31073	-585.01514	-521.77576	578.45978	-516.2334	-612.42487	522.65802	-559.91443	-534.51489	988.14398	-693.90906	-734.41663	991.63654	-988.95349	-722.1756	514.59717	-943.13611	-753.74939	548.57593	-1042.3076	-617.41034	114.42896	-1104.809	-699.17462	108.51116	-1184.3563
347	1.725	-463.93878	131.23698	-597.45654	-520.73206	128.90305	-584.29517	-520.29218	578.93604	-514.33545	-611.94244	523.53802	-557.4234	-533.9491	988.02911	-692.76898	-733.13721	991.289	-987.77393	-721.10852	514.47235	-943.2132	-752.49194	548.65045	-1042.3048	-617.20483	114.20439	-1104.7197	-698.93115	108.48006	-1184.5599
348	1.73	-463.94638	131.5963	-597.08887	-520.60626	129.4608	-583.6087	-518.78339	579.38739	-512.36475	-610.8902	524.14032	-554.88055	-533.32831	987.80609	-691.87671	-732.48749	991.07721	-987.0697	-720.03418	514.3194	-943.15527	-751.22736	548.64685	-1042.3328	-617.04156	113.98962	-1104.6677	-698.64648	108.32925	-1184.5586
349	1.735	-463.98425	132.00919	-596.72424	-520.61774	129.87799	-583.01202	-517.23523	579.79102	-510.3876	-609.62213	524.64124	-552.31671	-532.63715	987.56116	-690.73334	-731.39868	990.43567	-985.94629	-718.93011	514.1618	-943.01794	-749.95166	548.68036	-1042.384	-616.90076	113.65336	-1104.5422	-698.35925	108.4365	-1184.4977
